<svg width="300" height="300" viewBox="0 0 300 300" fill="none" xmlns="http://www.w3.org/2000/svg">
<path d="M149 24C124.08 24 99.7187 31.3898 78.9982 45.2348C58.2776 59.0799 42.1278 78.7584 32.5912 101.782C23.0545 124.805 20.5593 150.14 25.4211 174.581C30.2828 199.023 42.2831 221.474 59.9045 239.095C77.526 256.717 99.977 268.717 124.419 273.579C148.86 278.441 174.195 275.945 197.218 266.409C220.242 256.872 239.92 240.722 253.765 220.002C267.61 199.281 275 174.92 275 150C275 116.583 261.725 84.5341 238.095 60.9045C214.466 37.275 182.417 24 149 24ZM149 249.3C129.365 249.28 110.176 243.44 93.8591 232.516C77.5425 221.593 64.8305 206.078 57.3301 187.931C49.8296 169.785 47.8774 149.822 51.7202 130.566C55.563 111.311 65.0283 93.6264 78.9196 79.749C92.811 65.8717 110.505 56.4242 129.764 52.6008C149.024 48.7774 168.985 50.7497 187.124 58.2684C205.262 65.7871 220.765 78.5147 231.672 94.8423C242.579 111.17 248.4 130.365 248.4 150C248.4 176.336 237.938 201.593 219.316 220.216C200.693 238.838 175.436 249.3 149.1 249.3H149Z" fill="black"/>
</svg>
