<svg width="300" height="300" viewBox="0 0 300 300" fill="none" xmlns="http://www.w3.org/2000/svg">
<g clip-path="url(#clip0_3_11)">
<path d="M0 0H300V300H0V0Z" fill="url(#paint0_linear_3_11)"/>
<path d="M149 24C124.08 24 99.7187 31.3898 78.9982 45.2348C58.2776 59.0799 42.1278 78.7584 32.5912 101.782C23.0545 124.805 20.5593 150.14 25.4211 174.581C30.2828 199.023 42.2831 221.474 59.9045 239.095C77.526 256.717 99.977 268.717 124.419 273.579C148.86 278.441 174.195 275.945 197.218 266.409C220.242 256.872 239.92 240.722 253.765 220.002C267.61 199.281 275 174.92 275 150C275 116.583 261.725 84.5341 238.095 60.9045C214.466 37.275 182.417 24 149 24ZM149 249.3C129.365 249.28 110.176 243.44 93.8591 232.516C77.5425 221.593 64.8305 206.078 57.3301 187.931C49.8296 169.785 47.8774 149.822 51.7202 130.566C55.563 111.311 65.0283 93.6264 78.9196 79.749C92.811 65.8717 110.505 56.4242 129.764 52.6008C149.024 48.7774 168.985 50.7497 187.124 58.2684C205.262 65.7871 220.765 78.5147 231.672 94.8423C242.579 111.17 248.4 130.365 248.4 150C248.4 176.336 237.938 201.593 219.316 220.216C200.693 238.838 175.436 249.3 149.1 249.3H149Z" fill="black"/>
</g>
<path d="M148.629 214.041L148.506 215.535L148.684 215.55L148.86 215.523L148.629 214.041ZM148.629 214.041C148.506 215.535 148.505 215.535 148.504 215.535L148.502 215.535L148.495 215.535L148.472 215.533L148.388 215.525C148.316 215.518 148.211 215.508 148.075 215.494C147.803 215.466 147.407 215.421 146.904 215.357C145.898 215.228 144.46 215.018 142.715 214.692C139.229 214.041 134.498 212.924 129.534 211.058C119.677 207.351 108.519 200.538 104.829 188.159C101.321 176.389 98.226 161.442 96.012 149.471C94.9038 143.479 94.0139 138.219 93.401 134.457C93.0945 132.576 92.8572 131.069 92.6964 130.032C92.6161 129.513 92.5548 129.111 92.5136 128.839L92.4669 128.53L92.4551 128.451L92.452 128.43L92.4513 128.425L92.4511 128.424C92.451 128.423 92.451 128.423 93.9347 128.203L92.451 128.423L92.1965 126.708L93.9306 126.703L202.932 126.395L204.75 126.39L204.41 128.176L202.936 127.895C204.41 128.176 204.41 128.176 204.41 128.176L204.41 128.177L204.408 128.183L204.404 128.204L204.388 128.289L204.325 128.62C204.269 128.911 204.186 129.339 204.078 129.892C203.863 130.998 203.549 132.601 203.153 134.589C202.36 138.565 201.239 144.085 199.925 150.262C197.299 162.6 193.892 177.605 190.785 188.14C187.493 199.303 176.742 206.12 167.254 210.116C162.459 212.136 157.871 213.485 154.485 214.329C152.791 214.751 151.393 215.048 150.415 215.24C149.926 215.337 149.541 215.406 149.277 215.453C149.145 215.476 149.043 215.493 148.973 215.504L148.892 215.518L148.87 215.521L148.863 215.522L148.861 215.522C148.86 215.523 148.86 215.523 148.629 214.041Z" fill="#A4A9AD" stroke="black" stroke-width="3"/>
<path d="M148.987 103.936C143.684 103.884 140.072 103.166 137.599 101.898C135.154 100.644 133.789 98.8357 133.005 96.499C132.212 94.1322 132.015 91.2266 131.942 87.7899C131.924 86.929 131.913 86.0358 131.902 85.1123C131.871 82.5258 131.838 79.7018 131.624 76.6867L166.066 76.5028C165.984 79.087 166.014 81.5647 166.042 83.8836C166.057 85.148 166.072 86.3653 166.068 87.5269C166.055 90.9903 165.873 93.9722 165.072 96.4131C164.28 98.8271 162.885 100.708 160.414 101.99C157.918 103.285 154.285 103.988 148.987 103.936Z" fill="#D9D9D9" stroke="#5F5A5A"/>
<path d="M154.675 103.332L154.827 107.704H143.699V103.311C145.201 102.789 146.464 102.649 148.891 102.535C151.683 102.685 153.07 102.851 154.675 103.332Z" fill="#D9D9D9" stroke="#5F5A5A"/>
<path d="M154.675 103.332L154.827 107.704H143.699V103.311C145.201 102.789 146.464 102.649 148.891 102.535C151.683 102.685 153.07 102.851 154.675 103.332Z" fill="#D9D9D9" stroke="#5F5A5A"/>
<path d="M158.353 108.113L158.613 113.102H139.144V108.095C141.833 107.457 144.03 107.294 148.251 107.161C153.108 107.335 155.497 107.529 158.353 108.113Z" fill="#D9D9D9" stroke="#5F5A5A"/>
<path d="M161.295 113.964L161.652 121.585H136.108V113.945C139.663 112.992 142.521 112.754 148.061 112.56C154.428 112.813 157.531 113.097 161.295 113.964Z" fill="#D9D9D9" stroke="#5F5A5A"/>
<path d="M170.864 127.124L171.537 170.942H126.999V127.098C130.163 124.42 132.543 122.549 135.497 121.328C138.5 120.086 142.138 119.5 147.848 119.5C154.408 119.5 158.508 120.225 161.803 121.54C164.864 122.762 167.256 124.502 170.32 126.729C170.499 126.859 170.68 126.991 170.864 127.124Z" fill="#D9D9D9" stroke="#5F5A5A"/>
<path d="M174.553 169.775L175.311 183.281H122.444V169.758C129.896 168.061 135.757 167.649 147.207 167.315C160.355 167.751 166.691 168.241 174.553 169.775Z" fill="#D9D9D9" stroke="#5F5A5A"/>
<path d="M118.725 184.04C118.638 183.314 118.977 182.524 119.925 181.384L177.215 181.59C177.867 182.731 178.122 183.576 178.102 184.372C178.082 185.176 177.78 186 177.172 187.101C169.068 187.85 162.752 188.014 150.38 188.121C136.131 187.871 129.32 187.624 120.749 186.885C119.394 185.662 118.816 184.803 118.725 184.04Z" fill="#989393" stroke="#5F5A5A"/>
<path d="M147.841 123L210.781 124.269C212.818 126.312 204.708 135.173 204.849 137.675C208.183 144.991 213.884 149.374 211.384 151.556C196.588 151.556 179.073 150.684 179.073 155.034C174.445 158.334 179.584 169.801 173.268 172.974C173.268 172.974 122.332 176.007 119.876 171.644C117.419 167.281 119.886 154.333 114.271 153.54L91.3658 151.556C89.3248 150.452 88.5342 148.882 88 143.73V130.192C88.3608 126.171 89.2246 125.101 91.3658 124.269L147.841 123Z" fill="black"/>
<path d="M164.777 130.75C165.811 131.767 166.327 133.267 166.327 135.25C166.327 137.233 165.811 138.742 164.777 139.775C163.761 140.792 162.319 141.3 160.452 141.3H157.027V147H153.552V129.2H160.452C162.319 129.2 163.761 129.717 164.777 130.75ZM162.852 135.25C162.852 133.283 161.994 132.3 160.277 132.3H157.027V138.175H160.277C161.111 138.175 161.744 137.95 162.177 137.5C162.627 137.05 162.852 136.3 162.852 135.25ZM172.726 147H169.251V129.2H172.726V147ZM185.868 140.1H189.093C189.093 142.367 188.526 144.108 187.393 145.325C186.26 146.542 184.66 147.15 182.593 147.15C178.043 147.15 175.768 144.475 175.768 139.125V137.625C175.768 133.408 176.935 130.767 179.268 129.7C180.185 129.267 181.293 129.05 182.593 129.05C184.493 129.05 186.035 129.575 187.218 130.625C188.418 131.658 189.018 133.158 189.018 135.125H185.768C185.585 134.142 185.26 133.4 184.793 132.9C184.326 132.4 183.593 132.15 182.593 132.15C181.426 132.15 180.56 132.517 179.993 133.25C179.593 133.767 179.36 134.65 179.293 135.9C179.26 136.3 179.243 136.842 179.243 137.525V139.075C179.243 140.992 179.51 142.3 180.043 143C180.593 143.7 181.443 144.05 182.593 144.05C183.76 144.05 184.56 143.733 184.993 143.1C185.443 142.45 185.735 141.45 185.868 140.1ZM200.078 137.575L206.203 147H202.153L197.953 140.275L195.528 143.525V147H192.053V129.2H195.528V139.15L202.253 129.2H205.753L200.078 137.575Z" fill="#E87917"/>
<path d="M108.202 140.1H111.427C111.427 142.367 110.86 144.108 109.727 145.325C108.593 146.542 106.993 147.15 104.927 147.15C100.377 147.15 98.1017 144.475 98.1017 139.125V137.625C98.1017 133.408 99.2683 130.767 101.602 129.7C102.518 129.267 103.627 129.05 104.927 129.05C106.827 129.05 108.368 129.575 109.552 130.625C110.752 131.658 111.352 133.158 111.352 135.125H108.102C107.918 134.142 107.593 133.4 107.127 132.9C106.66 132.4 105.927 132.15 104.927 132.15C103.76 132.15 102.893 132.517 102.327 133.25C101.927 133.767 101.693 134.65 101.627 135.9C101.593 136.3 101.577 136.842 101.577 137.525V139.075C101.577 140.992 101.843 142.3 102.377 143C102.927 143.7 103.777 144.05 104.927 144.05C106.093 144.05 106.893 143.733 107.327 143.1C107.777 142.45 108.068 141.45 108.202 140.1ZM127.462 129.2V140.9C127.462 142.833 126.804 144.358 125.487 145.475C124.187 146.592 122.579 147.15 120.662 147.15C118.746 147.15 117.129 146.592 115.812 145.475C114.512 144.358 113.862 142.833 113.862 140.9V129.2H117.337V140.775C117.337 141.875 117.637 142.7 118.237 143.25C118.854 143.783 119.662 144.05 120.662 144.05C121.662 144.05 122.471 143.783 123.087 143.25C123.704 142.7 124.012 141.875 124.012 140.775V129.2H127.462ZM142.311 130.75C143.345 131.767 143.861 133.267 143.861 135.25C143.861 137.233 143.345 138.742 142.311 139.775C141.295 140.792 139.853 141.3 137.986 141.3H134.561V147H131.086V129.2H137.986C139.853 129.2 141.295 129.717 142.311 130.75ZM140.386 135.25C140.386 133.283 139.528 132.3 137.811 132.3H134.561V138.175H137.811C138.645 138.175 139.278 137.95 139.711 137.5C140.161 137.05 140.386 136.3 140.386 135.25Z" fill="#E87917"/>
<path d="M131.796 168H124.976C124.389 168 123.889 167.88 123.476 167.64C123.063 167.4 122.856 167 122.856 166.44C122.856 165.973 123.023 165.52 123.356 165.08C123.476 164.933 123.676 164.707 123.956 164.4L126.096 162.02C126.709 161.407 127.196 160.853 127.556 160.36C127.916 159.853 128.183 159.473 128.356 159.22C128.529 158.967 128.663 158.747 128.756 158.56C128.983 158.107 129.096 157.72 129.096 157.4C129.096 157.08 128.969 156.767 128.716 156.46C128.476 156.14 128.029 155.98 127.376 155.98C126.736 155.98 126.289 156.167 126.036 156.54C125.796 156.913 125.676 157.44 125.676 158.12H123.056C123.056 157.44 123.109 156.86 123.216 156.38C123.323 155.887 123.529 155.42 123.836 154.98C124.436 154.087 125.676 153.64 127.556 153.64C128.956 153.64 130.036 153.927 130.796 154.5C131.556 155.073 131.936 155.893 131.936 156.96C131.936 157.613 131.783 158.293 131.476 159C131.183 159.693 130.869 160.253 130.536 160.68C130.203 161.107 129.809 161.58 129.356 162.1C128.903 162.62 128.636 162.933 128.556 163.04L126.296 165.66H131.796V168ZM142.753 168H135.933C135.346 168 134.846 167.88 134.433 167.64C134.02 167.4 133.813 167 133.813 166.44C133.813 165.973 133.98 165.52 134.313 165.08C134.433 164.933 134.633 164.707 134.913 164.4L137.053 162.02C137.666 161.407 138.153 160.853 138.513 160.36C138.873 159.853 139.14 159.473 139.313 159.22C139.486 158.967 139.62 158.747 139.713 158.56C139.94 158.107 140.053 157.72 140.053 157.4C140.053 157.08 139.926 156.767 139.673 156.46C139.433 156.14 138.986 155.98 138.333 155.98C137.693 155.98 137.246 156.167 136.993 156.54C136.753 156.913 136.633 157.44 136.633 158.12H134.013C134.013 157.44 134.066 156.86 134.173 156.38C134.28 155.887 134.486 155.42 134.793 154.98C135.393 154.087 136.633 153.64 138.513 153.64C139.913 153.64 140.993 153.927 141.753 154.5C142.513 155.073 142.893 155.893 142.893 156.96C142.893 157.613 142.74 158.293 142.433 159C142.14 159.693 141.826 160.253 141.493 160.68C141.16 161.107 140.766 161.58 140.313 162.1C139.86 162.62 139.593 162.933 139.513 163.04L137.253 165.66H142.753V168ZM151.25 163.5H145.09V161.08H151.25V163.5ZM162.226 168H155.406C154.819 168 154.319 167.88 153.906 167.64C153.492 167.4 153.286 167 153.286 166.44C153.286 165.973 153.452 165.52 153.786 165.08C153.906 164.933 154.106 164.707 154.386 164.4L156.526 162.02C157.139 161.407 157.626 160.853 157.986 160.36C158.346 159.853 158.612 159.473 158.786 159.22C158.959 158.967 159.092 158.747 159.186 158.56C159.412 158.107 159.526 157.72 159.526 157.4C159.526 157.08 159.399 156.767 159.146 156.46C158.906 156.14 158.459 155.98 157.806 155.98C157.166 155.98 156.719 156.167 156.466 156.54C156.226 156.913 156.106 157.44 156.106 158.12H153.486C153.486 157.44 153.539 156.86 153.646 156.38C153.752 155.887 153.959 155.42 154.266 154.98C154.866 154.087 156.106 153.64 157.986 153.64C159.386 153.64 160.466 153.927 161.226 154.5C161.986 155.073 162.366 155.893 162.366 156.96C162.366 157.613 162.212 158.293 161.906 159C161.612 159.693 161.299 160.253 160.966 160.68C160.632 161.107 160.239 161.58 159.786 162.1C159.332 162.62 159.066 162.933 158.986 163.04L156.726 165.66H162.226V168ZM168.163 161.5L168.603 159.3L169.843 159.88C170.349 159.24 170.603 158.407 170.603 157.38C170.603 157.113 170.443 156.82 170.123 156.5C169.816 156.18 169.329 156.02 168.663 156.02C168.009 156.02 167.563 156.167 167.323 156.46C167.083 156.753 166.963 157.307 166.963 158.12H164.523C164.523 156.587 164.869 155.46 165.563 154.74C166.269 154.007 167.329 153.64 168.743 153.64C171.649 153.64 173.103 154.88 173.103 157.36C173.103 158.813 172.663 159.993 171.783 160.9C172.796 161.473 173.303 162.56 173.303 164.16C173.303 165.4 172.903 166.373 172.103 167.08C171.316 167.773 170.209 168.12 168.783 168.12C167.356 168.12 166.289 167.753 165.583 167.02C164.889 166.287 164.543 165.307 164.543 164.08H167.083C167.083 164.307 167.109 164.533 167.163 164.76C167.229 164.973 167.389 165.193 167.643 165.42C167.896 165.633 168.296 165.74 168.843 165.74C169.403 165.74 169.849 165.567 170.183 165.22C170.529 164.86 170.703 164.46 170.703 164.02C170.703 163.553 170.616 163.213 170.443 163C170.283 162.787 170.163 162.633 170.083 162.54C170.003 162.433 169.849 162.32 169.623 162.2C169.409 162.08 169.263 162 169.183 161.96C169.103 161.907 168.923 161.827 168.643 161.72C168.376 161.6 168.216 161.527 168.163 161.5Z" fill="#E87917"/>
<defs>
<linearGradient id="paint0_linear_3_11" x1="150" y1="0" x2="150" y2="300" gradientUnits="userSpaceOnUse">
<stop stop-color="#00BDD0"/>
<stop offset="1" stop-color="white"/>
</linearGradient>
<clipPath id="clip0_3_11">
<rect width="300" height="300" fill="white"/>
</clipPath>
</defs>
</svg>
