<?xml version="1.0" encoding="UTF-8" standalone="no"?>
<!-- Created with Inkscape (http://www.inkscape.org/) -->

<svg
   width="210mm"
   height="297mm"
   viewBox="0 0 210 297"
   version="1.1"
   id="svg552"
   inkscape:version="1.2.1 (9c6d41e410, 2022-07-14)"
   sodipodi:docname="leafs v2.svg"
   xmlns:inkscape="http://www.inkscape.org/namespaces/inkscape"
   xmlns:sodipodi="http://sodipodi.sourceforge.net/DTD/sodipodi-0.dtd"
   xmlns="http://www.w3.org/2000/svg"
   xmlns:svg="http://www.w3.org/2000/svg">
  <sodipodi:namedview
     id="namedview554"
     pagecolor="#505050"
     bordercolor="#eeeeee"
     borderopacity="1"
     inkscape:showpageshadow="0"
     inkscape:pageopacity="0"
     inkscape:pagecheckerboard="0"
     inkscape:deskcolor="#505050"
     inkscape:document-units="mm"
     showgrid="false"
     inkscape:zoom="0.19531951"
     inkscape:cx="325.10832"
     inkscape:cy="1157.0784"
     inkscape:window-width="1920"
     inkscape:window-height="1057"
     inkscape:window-x="1912"
     inkscape:window-y="-8"
     inkscape:window-maximized="1"
     inkscape:current-layer="layer1" />
  <defs
     id="defs549">
    <inkscape:path-effect
       effect="bend_path"
       id="path-effect1779"
       is_visible="true"
       lpeversion="1"
       bendpath="m 213.08279,339.75469 239.36823,-1.20563"
       prop_scale="1"
       scale_y_rel="false"
       vertical="false"
       hide_knot="false"
       bendpath-nodetypes="cc" />
    <rect
       x="706.53462"
       y="1372.1107"
       width="742.37334"
       height="163.83412"
       id="rect1702" />
  </defs>
  <g
     inkscape:label="Layer 1"
     inkscape:groupmode="layer"
     id="layer1">
    <rect
       style="fill:#ffffff;stroke-width:0.266065"
       id="rect1306"
       width="500"
       height="500"
       x="15.916761"
       y="28.44698" />
    <ellipse
       style="fill:#0000ff;stroke-width:1.23931"
       id="path1488"
       cx="265.91675"
       cy="278.44696"
       rx="250"
       ry="249.99998" />
    <text
       xml:space="preserve"
       transform="scale(0.26458333)"
       id="text1700"
       style="fill:#000000;font-size:13.33333333px;white-space:pre;shape-inside:url(#rect1702)" />
    <g
       aria-label="Test Text"
       transform="scale(0.89001324,1.1235788)"
       id="text1708"
       style="font-size:66.5815px;fill:#e6e6e6;stroke-width:0.693557"
       inkscape:path-effect="#path-effect1779"
       class="UnoptimicedTransforms">
      <path
         d="m 246.12069,320.66693 -14.00152,0.0705 0.21499,42.68575 -5.21109,0.0263 -0.215,-42.68575 -14.00153,0.0705 -0.0288,-5.72176 33.21415,-0.16729 z"
         id="path1762"
         inkscape:original-d="m 254.11104,320.83358 h -17.29558 v 42.68629 h -6.43708 v -42.68629 h -17.29559 v -5.72184 h 41.02825 z" />
      <path
         d="m 269.93423,345.71044 -21.66026,0.1091 c 0.0112,2.23235 0.29303,4.18159 0.84535,5.8477 0.55222,1.64444 1.30473,2.99527 2.25756,4.05249 0.91761,1.03573 2.00061,1.81054 3.24898,2.32443 1.26591,0.5138 2.65334,0.76689 4.16228,0.75929 2.00021,-0.0101 4.00675,-0.50784 6.0196,-1.4933 2.03029,-1.00723 3.4729,-1.98983 4.32784,-2.94779 l 0.26319,-0.001 0.0336,6.66456 c -1.66248,0.87533 -3.36077,1.60997 -5.09485,2.2039 -1.73409,0.59393 -3.55737,0.89571 -5.46986,0.90534 -4.87773,0.0246 -8.69335,-1.58176 -11.44686,-4.81898 -2.75363,-3.25889 -4.14555,-7.89011 -4.17579,-13.89364 -0.0299,-5.9385 1.2535,-10.65905 3.85025,-14.16163 2.61428,-3.50267 6.06201,-5.26479 10.34318,-5.28635 3.96535,-0.02 7.02552,1.39509 9.18052,4.24519 2.17253,2.85002 3.27207,6.90835 3.29859,12.17498 z m -4.8399,-4.65719 c -0.0337,-3.20758 -0.70416,-5.68587 -2.0114,-7.43488 -1.28968,-1.74909 -3.25046,-2.61701 -5.88232,-2.60375 -2.64942,0.0133 -4.75882,0.98846 -6.32823,2.92535 -1.55185,1.93679 -2.42585,4.33616 -2.62199,7.19812 z"
         id="path1764"
         inkscape:original-d="m 283.37049,345.99671 h -26.75614 q 0,3.34858 1.00783,5.85189 1.00782,2.4708 2.76339,4.06381 1.69054,1.5605 3.99879,2.34076 2.34075,0.78025 5.13666,0.78025 3.70619,0 7.4449,-1.46297 3.77122,-1.49549 5.36423,-2.92595 h 0.32511 v 6.66465 q -3.0885,1.30042 -6.30704,2.17821 -3.21854,0.87778 -6.76218,0.87778 -9.03792,0 -14.10956,-4.87657 -5.07163,-4.90909 -5.07163,-13.9145 0,-8.90787 4.84406,-14.14206 4.87657,-5.23419 12.80913,-5.23419 7.34738,0 11.31366,4.29138 3.99879,4.29139 3.99879,12.19144 z m -5.94942,-4.68151 q -0.0325,-4.81156 -2.43829,-7.44491 -2.37327,-2.63335 -7.24984,-2.63335 -4.90909,0 -7.83503,2.89344 -2.89343,2.89343 -3.28356,7.18482 z" />
      <path
         d="m 298.47286,352.62157 c 0.0167,3.31602 -1.08375,6.04164 -3.30137,8.17686 -2.20006,2.13513 -5.22136,3.21237 -9.06389,3.23172 -2.17567,0.011 -4.17747,-0.29323 -6.0054,-0.91256 -1.81049,-0.6411 -3.33174,-1.33785 -4.56377,-2.09023 l -0.0346,-6.85963 0.26319,-0.001 c 1.56888,1.44425 3.31175,2.59502 5.22861,3.45233 1.91675,0.83563 3.75241,1.24902 5.50699,1.24019 2.17567,-0.011 3.87543,-0.453 5.09927,-1.32612 1.22384,-0.87312 1.83106,-2.24164 1.82167,-4.10555 -0.007,-1.43044 -0.34603,-2.51243 -1.01648,-3.24597 -0.67045,-0.73354 -1.95446,-1.35562 -3.85202,-1.86623 -0.70281,-0.19153 -1.62511,-0.41446 -2.7669,-0.6688 -1.12424,-0.25442 -2.15209,-0.53101 -3.08354,-0.82975 -2.58349,-0.83227 -4.42325,-2.05842 -5.51927,-3.67844 -1.07859,-1.64179 -1.62389,-3.65472 -1.6359,-6.03879 -0.008,-1.49547 0.23102,-2.90548 0.71565,-4.23003 0.50216,-1.32464 1.25945,-2.50968 2.27187,-3.55513 0.97743,-1.02359 2.21914,-1.83178 3.72513,-2.42457 1.52342,-0.61454 3.22384,-0.92654 5.10124,-0.936 1.75458,-0.009 3.52806,0.25316 5.32046,0.78598 1.80984,0.51105 3.31322,1.14286 4.51015,1.89542 l 0.0329,6.53453 -0.26318,0.001 c -1.26908,-1.14233 -2.8092,-2.09906 -4.62034,-2.8702 -1.81125,-0.79281 -3.5854,-1.18484 -5.32243,-1.1761 -1.80721,0.009 -3.33151,0.45026 -4.5729,1.32347 -1.24149,0.85154 -1.85798,2.12257 -1.84946,3.8131 0.008,1.49546 0.39044,2.62057 1.14873,3.37534 0.74074,0.75486 1.93697,1.36654 3.58867,1.83505 0.91369,0.25548 1.93265,0.51044 3.0569,0.76487 1.14178,0.25433 2.09045,0.48796 2.84601,0.7009 2.30177,0.63862 4.07952,1.74588 5.33324,3.32176 1.25382,1.59756 1.88739,3.71841 1.90071,6.36257 z"
         id="path1766"
         inkscape:original-d="m 318.57935,353.05149 q 0,4.9741 -4.12883,8.16013 -4.09632,3.18603 -11.21612,3.18603 -4.0313,0 -7.41239,-0.9428 -3.34858,-0.97532 -5.62432,-2.11319 v -6.85971 h 0.32511 q 2.89343,2.1782 6.43707,3.47862 3.54365,1.26791 6.7947,1.26791 4.0313,0 6.30703,-1.30042 2.27574,-1.30042 2.27574,-4.09632 0,-2.14569 -1.2354,-3.25105 -1.2354,-1.10536 -4.74653,-1.88561 -1.30042,-0.29259 -3.4136,-0.68272 -2.08068,-0.39013 -3.80373,-0.84527 -4.77905,-1.26791 -6.7947,-3.7062 -1.98314,-2.4708 -1.98314,-6.04695 0,-2.24323 0.9103,-4.22637 0.9428,-1.98314 2.82841,-3.54364 1.82059,-1.52799 4.61649,-2.40578 2.82841,-0.91029 6.30704,-0.91029 3.25105,0 6.56712,0.81276 3.34858,0.78025 5.55929,1.91812 v 6.53461 h -0.3251 q -2.34076,-1.72306 -5.68934,-2.89343 -3.34858,-1.20289 -6.56712,-1.20289 -3.34858,0 -5.65683,1.30042 -2.30824,1.26791 -2.30824,3.80373 0,2.24322 1.39795,3.38109 1.36544,1.13786 4.42143,1.8531 1.69054,0.39012 3.77122,0.78025 2.11318,0.39012 3.51113,0.71523 4.25887,0.97531 6.56712,3.34858 2.30824,2.40578 2.30824,6.37206 z" />
      <path
         d="m 320.8685,362.65217 c -0.92839,0.30811 -1.94479,0.56248 -3.0492,0.7631 -1.08685,0.20055 -2.06015,0.30298 -2.91989,0.30731 -3.00033,0.0151 -5.28631,-0.97037 -6.85792,-2.95646 -1.57161,-1.98609 -2.3685,-5.17898 -2.39066,-9.57867 l -0.0973,-19.311 -3.34247,0.0168 -0.0259,-5.1366 3.34247,-0.0168 -0.0526,-10.43574 4.94791,-0.0249 0.0526,10.43574 10.21164,-0.0514 0.0259,5.1366 -10.21164,0.0514 0.0833,16.54763 c 0.01,1.90726 0.0522,3.40255 0.12787,4.48586 0.0755,1.06165 0.32619,2.05739 0.75198,2.98722 0.39038,0.865 0.91997,1.50171 1.58878,1.91015 0.68625,0.38667 1.72243,0.57652 3.10855,0.56954 0.80711,-0.004 1.6486,-0.14919 2.52447,-0.43536 0.87576,-0.30785 1.50615,-0.56028 1.89118,-0.75728 l 0.26318,-0.001 z"
         id="path1768"
         inkscape:original-d="m 346.18077,363.19476 q -1.72305,0.45515 -3.77122,0.74774 -2.01565,0.2926 -3.60866,0.2926 -5.5593,0 -8.45273,-2.99097 -2.89343,-2.99096 -2.89343,-9.59059 V 332.3423 h -4.12884 v -5.13666 h 4.12884 v -10.43587 h 6.11197 v 10.43587 h 12.61407 v 5.13666 H 333.5667 v 16.54784 q 0,2.86093 0.13004,4.48645 0.13004,1.59302 0.91029,2.99097 0.71524,1.30042 1.95063,1.91812 1.26791,0.58519 3.83624,0.58519 1.49549,0 3.12101,-0.42264 1.62553,-0.45515 2.34076,-0.74774 h 0.3251 z" />
      <path
         d="m 373.92411,320.02322 -14.00152,0.0705 0.21499,42.68575 -5.2111,0.0263 -0.21499,-42.68575 -14.00153,0.0705 -0.0288,-5.72176 33.21414,-0.16729 z"
         id="path1770"
         inkscape:original-d="m 411.98201,320.83358 h -17.29558 v 42.68629 h -6.43708 v -42.68629 h -17.29558 v -5.72184 h 41.02824 z" />
      <path
         d="m 397.73765,345.06673 -21.66026,0.1091 c 0.0113,2.23235 0.29303,4.18159 0.84535,5.8477 0.55222,1.64444 1.30474,2.99527 2.25756,4.05249 0.91762,1.03573 2.00061,1.81054 3.24899,2.32443 1.26591,0.5138 2.65334,0.7669 4.16228,0.75929 2.00021,-0.0101 4.00675,-0.50784 6.0196,-1.4933 2.03029,-1.00723 3.4729,-1.98983 4.32784,-2.94779 l 0.26319,-0.001 0.0336,6.66456 c -1.66249,0.87533 -3.36077,1.60997 -5.09486,2.2039 -1.73408,0.59393 -3.55737,0.89571 -5.46985,0.90534 -4.87773,0.0246 -8.69335,-1.58176 -11.44687,-4.81898 -2.75362,-3.25889 -4.14556,-7.89011 -4.17579,-13.89364 -0.0299,-5.9385 1.25351,-10.65905 3.85025,-14.16163 2.61429,-3.50267 6.06202,-5.26479 10.34319,-5.28635 3.96535,-0.02 7.02552,1.39509 9.18051,4.24519 2.17254,2.85002 3.27208,6.90835 3.2986,12.17498 z m -4.83989,-4.65719 c -0.0337,-3.20758 -0.70416,-5.68587 -2.0114,-7.43488 -1.28968,-1.74909 -3.25046,-2.61701 -5.88232,-2.60375 -2.64942,0.0133 -4.75883,0.98846 -6.32823,2.92535 -1.55185,1.93679 -2.42585,4.33617 -2.622,7.19812 z"
         id="path1772"
         inkscape:original-d="m 441.24147,345.99671 h -26.75614 q 0,3.34858 1.00782,5.85189 1.00783,2.4708 2.7634,4.06381 1.69054,1.5605 3.99879,2.34076 2.34075,0.78025 5.13666,0.78025 3.70619,0 7.4449,-1.46297 3.77122,-1.49549 5.36423,-2.92595 h 0.32511 v 6.66465 q -3.0885,1.30042 -6.30704,2.17821 -3.21854,0.87778 -6.76218,0.87778 -9.03792,0 -14.10956,-4.87657 -5.07164,-4.90909 -5.07164,-13.9145 0,-8.90787 4.84407,-14.14206 4.87657,-5.23419 12.80913,-5.23419 7.34738,0 11.31366,4.29138 3.99879,4.29139 3.99879,12.19144 z m -5.94942,-4.68151 q -0.0325,-4.81156 -2.43829,-7.44491 -2.37327,-2.63335 -7.24984,-2.63335 -4.90909,0 -7.83503,2.89344 -2.89343,2.89343 -3.28356,7.18482 z" />
      <path
         d="m 430.77688,362.4237 -6.23752,0.0314 -8.41327,-13.90481 -8.3254,13.98912 -5.76379,0.029 11.38373,-18.16592 -11.46136,-18.14838 6.23752,-0.0314 8.35948,13.6775 8.2476,-13.76114 5.79011,-0.0292 -11.46383,17.93875 z"
         id="path1774"
         inkscape:original-d="m 481.94462,363.51987 h -7.70499 l -10.30583,-13.94701 -10.37085,13.94701 h -7.1198 l 14.17458,-18.10835 -14.04454,-18.20588 h 7.70499 l 10.24081,13.71943 10.27332,-13.71943 h 7.15231 l -14.27211,17.88078 z" />
      <path
         d="m 452.48813,361.98924 c -0.9284,0.30811 -1.9448,0.56248 -3.0492,0.7631 -1.08686,0.20055 -2.06016,0.30298 -2.9199,0.30731 -3.00032,0.0151 -5.2863,-0.97037 -6.85792,-2.95646 -1.57161,-1.98609 -2.3685,-5.17898 -2.39066,-9.57867 l -0.0973,-19.311 -3.34248,0.0168 -0.0259,-5.1366 3.34248,-0.0168 -0.0526,-10.43574 4.94791,-0.0249 0.0526,10.43574 10.21164,-0.0514 0.0259,5.1366 -10.21164,0.0514 0.0833,16.54763 c 0.01,1.90726 0.0522,3.40255 0.12787,4.48586 0.0755,1.06165 0.32619,2.05739 0.75199,2.98722 0.39037,0.86499 0.91997,1.50171 1.58878,1.91015 0.68625,0.38667 1.72243,0.57652 3.10854,0.56954 0.80711,-0.004 1.6486,-0.14919 2.52447,-0.43536 0.87576,-0.30785 1.50616,-0.56028 1.89118,-0.75728 l 0.26318,-0.001 z"
         id="path1776"
         inkscape:original-d="m 508.76576,363.19476 q -1.72305,0.45515 -3.77121,0.74774 -2.01566,0.2926 -3.60867,0.2926 -5.55929,0 -8.45273,-2.99097 -2.89343,-2.99096 -2.89343,-9.59059 V 332.3423 h -4.12884 v -5.13666 h 4.12884 v -10.43587 h 6.11197 v 10.43587 h 12.61407 v 5.13666 h -12.61407 v 16.54784 q 0,2.86093 0.13004,4.48645 0.13004,1.59302 0.9103,2.99097 0.71523,1.30042 1.95063,1.91812 1.26791,0.58519 3.83623,0.58519 1.49549,0 3.12101,-0.42264 1.62553,-0.45515 2.34076,-0.74774 h 0.3251 z" />
    </g>
  </g>
</svg>
