
<svg width="300" height="300" fill="none" xmlns="http://www.w3.org/2000/svg" xmlns:xlink="http://www.w3.org/1999/xlink" >
  <g clip-path="url(#a)">
    <path d="M0 0h300v300H0V0Z" fill="url(#b)"/>
    <path d="M142.7 214.7c-3.5-.7-8.2-1.8-13.2-3.6-9.8-3.7-21-10.6-24.7-23a402 402 0 0 1-8.8-38.6 721.8 721.8 0 0 1-3.5-20.7v-.3l1.4-.3-1.4.2-.3-1.7h1.7l109-.3h1.8l-.3 1.8-1.5-.3 1.5.3v.4a495 495 0 0 1-1.2 6l-3.3 15.7a568 568 0 0 1-9.1 37.8c-3.3 11.2-14 18-23.5 22-4.8 2-9.4 3.4-12.8 4.2a25 25 0 0 1-11.8.4Z" fill="#A4A9AD"/>
    <path d="M92.5 128.4v.4a382.6 382.6 0 0 0 3.5 20.7c2.2 12 5.3 26.9 8.8 38.7 3.7 12.3 14.9 19.2 24.7 22.9 5 1.8 9.7 3 13.2 3.6 4.4.8 7.5.7 11.8-.4 3.4-.8 8-2.2 12.8-4.2 9.4-4 20.2-10.8 23.5-22a568 568 0 0 0 12.4-53.5 1044.8 1044.8 0 0 0 1.1-6v-.3l.1-.1m-112 .2 1.5-.2-1.4.2Zm0 0-.2-1.7h1.7l109-.3h1.8l-.3 1.8m0 0-1.5-.3 1.5.3Z" stroke="#000" stroke-width="3"/>
    <path d="M149 104.4c-21.4-.2-16.6-11-18-28.2l35.6-.2c-.6 16.7 3.7 28.6-17.6 28.4Z" fill="#D9D9D9"/>
    <path d="M149 104c-5.3-.1-9-.8-11.4-2.1a8.9 8.9 0 0 1-4.6-5.4c-.8-2.4-1-5.3-1-8.7l-.1-2.7c0-2.6 0-5.4-.3-8.4l34.5-.2v11c0 3.5-.2 6.5-1 9a9.1 9.1 0 0 1-4.7 5.5 25 25 0 0 1-11.4 2Z" stroke="#000"/>
    <path d="M148.9 102c3 .2 4.4.4 6.3 1l.1 5.2h-12.1V103c1.7-.7 3-.8 5.7-1Z" fill="#D9D9D9"/>
    <path d="M143.7 103.3c1.5-.5 2.8-.7 5.2-.8 2.8.2 4.2.4 5.8.8l.1 4.4h-11.1v-4.4Z" stroke="#000"/>
    <path d="M148.9 102c3 .2 4.4.4 6.3 1l.1 5.2h-12.1V103c1.7-.7 3-.8 5.7-1Z" fill="#D9D9D9"/>
    <path d="M143.7 103.3c1.5-.5 2.8-.7 5.2-.8 2.8.2 4.2.4 5.8.8l.1 4.4h-11.1v-4.4Z" stroke="#000"/>
    <path d="M148.3 106.7c5 .1 7.5.3 10.5 1l.3 5.9h-20.5v-5.9c3-.7 5.2-.9 9.7-1Z" fill="#D9D9D9"/>
    <path d="M139.1 108a56.5 56.5 0 0 1 19.2 0l.3 5.1h-19.5v-5Z" stroke="#000"/>
    <path d="M148 112c6.7.3 9.8.6 13.8 1.6l.4 8.5h-26.6v-8.5c3.8-1 6.7-1.3 12.5-1.5Z" fill="#D9D9D9"/>
    <path d="M136.1 114a60.2 60.2 0 0 1 25.2 0l.4 7.6H136v-7.7Z" stroke="#000"/>
    <path d="M147.8 119c13.2 0 16.7 3 23.6 7.9l.6 44.5h-45.5V127c6.5-5.5 9.9-7.9 21.3-7.9Z" fill="#D9D9D9"/>
    <path d="M147.8 119.5c6.6 0 10.7.7 14 2 3 1.3 5.5 3 8.5 5.2l.6.4.6 43.8H127v-43.8c3.2-2.7 5.5-4.6 8.5-5.8 3-1.2 6.6-1.8 12.3-1.8Z" stroke="#000"/>
    <path d="M147.2 166.8c13.4.5 19.7 1 27.8 2.6l.8 14.4H122v-14.4a116 116 0 0 1 25.3-2.6Z" fill="#D9D9D9"/>
    <path d="M122.4 169.8a115 115 0 0 1 24.8-2.5c13.2.5 19.5 1 27.4 2.5l.7 13.5h-52.9v-13.5Z" stroke="#000"/>
    <path d="M150.4 188.6c-14.4-.2-21.2-.5-29.9-1.2-2.9-2.6-3-4-.8-6.5l57.8.2c1.6 2.6 1.4 4 0 6.5-8.3.7-14.6 1-27.1 1Z" fill="#989393"/>
    <path d="M177.2 187.1a396.1 396.1 0 0 1-56.4-.2c-1.4-1.2-2-2.1-2-2.9-.2-.7.2-1.5 1.1-2.6l57.3.2c.7 1.1 1 2 .9 2.8a6 6 0 0 1-1 2.7Z" stroke="#000"/>
    <path d="m147.8 123 63 1.3c2 2-6 10.9-6 13.4 3.4 7.3 9 11.7 6.6 13.9-14.8 0-32.3-1-32.3 3.4-4.7 3.3.5 14.8-5.8 18 0 0-51 3-53.4-1.4-2.5-4.3 0-17.3-5.6-18l-23-2c-2-1.1-2.8-2.7-3.3-7.9v-13.5c.4-4 1.2-5.1 3.4-6l56.4-1.2Z" fill="#000"/>
    <path d="M164.8 130.8c1 1 1.5 2.5 1.5 4.4 0 2-.5 3.5-1.5 4.6a6 6 0 0 1-4.3 1.5H157v5.7h-3.4v-17.8h6.9c1.8 0 3.3.5 4.3 1.6Zm-2 4.4c0-2-.8-2.9-2.5-2.9H157v5.9h3.3a3 3 0 0 0 1.9-.7c.4-.4.7-1.2.7-2.3Zm10 11.8h-3.5v-17.8h3.4V147Zm13-6.9h3.3c0 2.3-.6 4-1.7 5.2a6.2 6.2 0 0 1-4.8 1.8c-4.6 0-6.8-2.6-6.8-8v-1.5c0-4.2 1.1-6.8 3.5-7.9.9-.4 2-.6 3.3-.6 1.9 0 3.4.5 4.6 1.5 1.2 1 1.8 2.6 1.8 4.5h-3.2c-.2-1-.5-1.7-1-2.2a3 3 0 0 0-2.2-.8c-1.2 0-2 .4-2.6 1.2-.4.5-.6 1.3-.7 2.6v3.2c0 1.9.2 3.2.7 3.9.6.7 1.4 1 2.6 1 1.2 0 2-.3 2.4-.9a9 9 0 0 0 .9-3Zm14.3-2.5 6.1 9.4h-4l-4.2-6.7-2.5 3.2v3.5h-3.4v-17.8h3.4v10l6.8-10h3.5l-5.7 8.4Zm-91.9 2.5h3.2c0 2.3-.5 4-1.7 5.2a6.2 6.2 0 0 1-4.8 1.8c-4.5 0-6.8-2.6-6.8-8v-1.5c0-4.2 1.2-6.8 3.5-7.9 1-.4 2-.6 3.3-.6 2 0 3.5.5 4.7 1.5 1.2 1 1.8 2.6 1.8 4.5H108c-.2-1-.5-1.7-1-2.2-.4-.5-1.2-.8-2.2-.8a3 3 0 0 0-2.6 1.2c-.4.5-.6 1.3-.7 2.6v3.2c0 1.9.2 3.2.8 3.9.5.7 1.4 1 2.5 1 1.2 0 2-.3 2.4-.9a6 6 0 0 0 .9-3Zm19.3-10.9v11.7c0 2-.7 3.5-2 4.6a7.1 7.1 0 0 1-4.8 1.7c-2 0-3.6-.6-4.9-1.7a5.7 5.7 0 0 1-2-4.6v-11.7h3.5v11.6c0 1 .3 1.9 1 2.4.6.6 1.4.9 2.4.9s1.8-.3 2.4-.8c.6-.6 1-1.4 1-2.5v-11.6h3.4Zm14.8 1.6a6 6 0 0 1 1.6 4.4c0 2-.6 3.5-1.6 4.6-1 1-2.4 1.5-4.3 1.5h-3.4v5.7H131v-17.8h6.9c1.9 0 3.3.5 4.3 1.6Zm-2 4.4c0-2-.8-2.9-2.5-2.9h-3.2v5.9h3.2c.8 0 1.5-.3 2-.7.4-.4.6-1.2.6-2.3Zm-8.5 32.8H125a3 3 0 0 1-1.5-.4c-.4-.2-.6-.6-.6-1.2 0-.4.1-.9.5-1.3 0-.2.3-.4.6-.7l2.1-2.4a14.6 14.6 0 0 0 2.7-3.4l.3-1.2c0-.3-.1-.6-.4-1-.2-.3-.7-.4-1.3-.4-.7 0-1.1.2-1.4.5a3 3 0 0 0-.3 1.6H123l.1-1.7c.1-.5.3-1 .6-1.4.6-1 1.9-1.4 3.8-1.4a5 5 0 0 1 3.2.9c.8.6 1.1 1.4 1.1 2.5a5 5 0 0 1-.4 2c-.3.7-.6 1.3-1 1.7a34.5 34.5 0 0 1-2 2.3l-2.2 2.7h5.5v2.3Zm11 0h-6.9a3 3 0 0 1-1.5-.4c-.4-.2-.6-.6-.6-1.2 0-.4.2-.9.5-1.3l.6-.7 2.2-2.4a14.6 14.6 0 0 0 2.6-3.4l.4-1.2c0-.3-.2-.6-.4-1-.3-.3-.7-.4-1.4-.4-.6 0-1 .2-1.3.5a3 3 0 0 0-.4 1.6H134c0-.7 0-1.2.2-1.7 0-.5.3-1 .6-1.4.6-1 1.8-1.4 3.7-1.4 1.4 0 2.5.3 3.3.9.7.6 1 1.4 1 2.5 0 .6 0 1.3-.4 2-.3.7-.6 1.3-1 1.7a34.5 34.5 0 0 1-1.9 2.3l-2.2 2.7h5.5v2.3Zm8.4-4.5h-6.1v-2.4h6.2v2.4Zm11 4.5h-6.8a3 3 0 0 1-1.5-.4c-.4-.2-.6-.6-.6-1.2 0-.4.2-.9.5-1.3l.6-.7 2.1-2.4a14.6 14.6 0 0 0 2.7-3.4l.3-1.2c0-.3-.1-.6-.4-1-.2-.3-.6-.4-1.3-.4-.6 0-1 .2-1.3.5a3 3 0 0 0-.4 1.6h-2.6l.1-1.7.7-1.4c.6-1 1.8-1.4 3.7-1.4 1.4 0 2.5.3 3.2.9a3 3 0 0 1 1.2 2.5 7.5 7.5 0 0 1-1.4 3.7 35.3 35.3 0 0 1-2 2.3l-2.3 2.7h5.5v2.3Zm6-6.5.4-2.2 1.2.6a4 4 0 0 0 .8-2.5c0-.3-.2-.6-.5-.9a2 2 0 0 0-1.4-.5c-.7 0-1.1.2-1.4.5-.2.3-.3.8-.3 1.6h-2.5c0-1.5.4-2.6 1-3.4.8-.7 1.8-1 3.2-1 3 0 4.4 1.2 4.4 3.7 0 1.4-.4 2.6-1.3 3.5 1 .6 1.5 1.7 1.5 3.3 0 1.2-.4 2.2-1.2 2.9-.8.7-1.9 1-3.3 1s-2.5-.3-3.2-1c-.7-.8-1-1.8-1-3h2.5v.7l.5.6c.3.2.7.3 1.2.3.6 0 1-.1 1.4-.5.3-.3.5-.7.5-1.2 0-.4 0-.8-.3-1a10 10 0 0 0-.3-.5l-.5-.3a13 13 0 0 0-1.4-.7Z" fill="#E87917"/>
    <path d="M149 24a126 126 0 1 0 0 252 126 126 0 0 0 0-252Zm0 225.3a99.3 99.3 0 1 1 .1 0h-.1Z" fill="#000"/>
  </g>
  <defs>
    <linearGradient id="b" x1="150" y1="0" x2="150" y2="300" gradientUnits="userSpaceOnUse">
      <stop stop-color="#00BDD0"/>
      <stop offset="1" stop-color="#fff"/>
    </linearGradient>
    <clipPath id="a">
      <path fill="#fff" d="M0 0h300v300H0z"/>
      <text>
        <textPath xlink:href="#b"> Toronto Maple Leafs</textPath> 
      </text>
    </clipPath>
  </defs>
</svg>